<?xml version="1.0" encoding="utf-8"?>
<!-- Generator: Adobe Illustrator 22.0.1, SVG Export Plug-In . SVG Version: 6.00 Build 0)  -->
<svg version="1.1" id="Layer_1" xmlns="http://www.w3.org/2000/svg" xmlns:xlink="http://www.w3.org/1999/xlink" x="0px" y="0px"
	 viewBox="0 0 1080 1080" style="enable-background:new 0 0 1080 1080;" xml:space="preserve">
<style type="text/css">
	.st0{fill:#FF0000;}
	.st1{display:none;fill:none;stroke:#000000;stroke-miterlimit:10;}
</style>
<path d="M251.4,462.9c7.6,3.9,13.4,9.4,17.5,16.3c4.1,6.9,6.1,14.8,6.1,23.6s-2.1,16.6-6.2,23.5c-4.2,6.8-10,12.2-17.6,16
	c-7.6,3.9-16.3,5.8-26.2,5.8h-54.4v74H165V457h60.1C235,457,243.8,459,251.4,462.9z M224.6,543c8.9,0,16.8-1.7,23.5-5.2
	c6.7-3.5,11.9-8.3,15.7-14.4c3.8-6.1,5.6-13,5.6-20.7c0-7.9-1.8-14.8-5.5-21c-3.7-6.1-8.9-10.9-15.6-14.4
	c-6.7-3.5-14.5-5.2-23.5-5.2h-54.4V543H224.6z"/>
<path d="M372,457h6.1l62,165h-5.7l-21.3-56.1h-76.5L315.6,622h-5.7L372,457z M411.6,560.7l-36.7-97.6l-36.4,97.6H411.6z"/>
<path d="M682.4,606.2c8.9,7.9,20.5,11.9,34.7,11.9c14.6,0,26.3-3.5,34.9-10.5c8.6-7,13-16.6,13-28.7c0-8.4-2.2-15.1-6.6-20.1
	c-4.4-5-10.1-8.7-16.9-11.1c-6.9-2.4-15.5-4.5-25.8-6.4c-10.9-2-19.7-4.2-26.3-6.5c-6.6-2.3-12.1-6.1-16.6-11.4
	c-4.5-5.3-6.8-12.7-6.8-22.4c0-13.7,4.6-24.4,13.8-32.3c9.2-7.8,21.7-11.8,37.5-11.8c14.2,0,25.8,3.9,34.9,11.8
	c9.1,7.8,14.4,18.4,15.8,31.6h-5.1c-1.5-11.8-6.3-21.2-14.4-28.1c-8.1-6.9-18.5-10.4-31.2-10.4c-14.3,0-25.6,3.5-33.9,10.4
	c-8.3,6.9-12.4,16.4-12.4,28.6c0,8.4,2.1,14.9,6.2,19.6c4.1,4.7,9.3,8,15.4,10c6.1,2,14.4,4,24.9,6.1c10.6,1.9,19.6,4.2,27,6.9
	c7.4,2.7,13.5,6.9,18.3,12.6c4.8,5.7,7.2,13.3,7.2,22.7c0,13.5-4.8,24.3-14.4,32.3c-9.6,8-22.4,12-38.5,12
	c-15.8,0-28.6-4.4-38.3-13.2c-9.7-8.8-15-20.6-15.7-35.3h4.9C668.6,587.7,673.4,598.3,682.4,606.2z"/>
<path d="M917.7,457v5H826v72.8h77.5v5H826v77.1h95v5.2H820.6V457H917.7z"/>
<rect x="496" y="457" class="st0" width="28" height="165"/>
<rect x="590" y="457" class="st0" width="28" height="165"/>
</svg>
